#tb 0: 1/25
#media_type 0: video
#codec_id 0: rawvideo
#dimensions 0: 256x1716
#sar 0: 0/1
0,          0,          0,        1,   878592, 0x9a99e1db
0,          1,          1,        1,   878592, 0x9317b608
0,          2,          2,        1,   878592, 0x2d6c9b2f
0,          3,          3,        1,   878592, 0xa7f0e3fe
0,          4,          4,        1,   878592, 0x98330125
